# File created by Blade
# Date/Time:  Wed Jan 21 18:34:34 2015
#---------------------------------------------------------
:version 1.10
:name HOM
:units
  mass 1.0
  length 1.000000
  angle deg
:documentation
     Acclaim Skeleton File
:root
   axis xyz
   order TX TY TZ RX RY RZ
   position 0.000000 0.000000 0.000000
   orientation 0 0 0
:bonedata
   begin
      id 1
      name RightUpLeg_dum
      direction -1.000000 0.000000 0.000000
      length 3.693983
      axis 0.0 0.0 0.0 xyz
   end
   begin
      id 2
      name LeftUpLeg_dum
      direction 1.000000 0.000000 0.000000
      length 3.693983
      axis 0.0 0.0 0.0 xyz
   end
   begin
      id 3
      name Spine_dum
      direction 0.000000 1.000000 0.000000
      length 2.392956
      axis 0.0 0.0 0.0 xyz
   end
   begin
      id 4
      name RightUpLeg
      direction 0.000000 -1.000000 0.000000
      length 15.795667
      axis 0.0 0.0 0.0 xyz
      dof rx ry rz
   end
   begin
      id 5
      name RightLeg
      direction 0.000000 -1.000000 0.000000
      length 14.766989
      axis 0.0 0.0 0.0 xyz
      dof rx ry rz
   end
   begin
      id 6
      name RightFoot
      direction 0.000000 -0.258819 0.965926
      length 4.962790
      axis 15.0 0.0 0.0 xyz
      dof rx ry rz
   end
   begin
      id 7
      name RightToeBase
      direction 0.000000 0.000000 1.000000
      length 2.952750
      axis 0.0 0.0 0.0 xyz
      dof rx ry rz
   end
   begin
      id 8
      name LeftUpLeg
      direction 0.000000 -1.000000 0.000000
      length 15.795667
      axis 0.0 0.0 0.0 xyz
      dof rx ry rz
   end
   begin
      id 9
      name LeftLeg
      direction 0.000000 -1.000000 0.000000
      length 14.766989
      axis 0.0 0.0 0.0 xyz
      dof rx ry rz
   end
   begin
      id 10
      name LeftFoot
      direction 0.000000 -0.258819 0.965926
      length 4.962790
      axis 15.0 0.0 0.0 xyz
      dof rx ry rz
   end
   begin
      id 11
      name LeftToeBase
      direction 0.000000 0.000000 1.000000
      length 2.952750
      axis 0.0 0.0 0.0 xyz
      dof rx ry rz
   end
   begin
      id 12
      name Spine
      direction 0.000000 1.000000 0.000000
      length 0.000000
      axis 0.0 0.0 0.0 xyz
      dof rx ry rz
   end
   begin
      id 13
      name Spine_dum1
      direction 0.000000 1.000000 0.000000
      length 13.207411
      axis 0.0 0.0 0.0 xyz
   end
   begin
      id 14
      name Spine_dum2
      direction 0.000000 1.000000 0.000000
      length 13.207411
      axis 0.0 0.0 0.0 xyz
   end
   begin
      id 15
      name Spine_dum3
      direction 0.000000 1.000000 0.000000
      length 19.250100
      axis 0.0 0.0 0.0 xyz
   end
   begin
      id 16
      name RightShoulder
      direction -1.000000 0.000000 0.000000
      length 8.140465
      axis 0.0 0.0 90.0 xyz
      dof rx ry rz
   end
   begin
      id 17
      name RightArm
      direction -1.000000 0.000000 0.000000
      length 10.649840
      axis 0.0 0.0 90.0 xyz
      dof rx ry rz
   end
   begin
      id 18
      name RightForeArm
      direction -1.000000 0.000000 0.000000
      length 8.304624
      axis 0.0 0.0 90.0 xyz
      dof ry rz rx
   end
   begin
      id 19
      name RightHand
      direction -1.000000 0.000000 0.000000
      length 0.000000
      axis 0.0 0.0 90.0 xyz
      dof rx ry rz
   end
   begin
      id 20
      name RightHand_dum1
      direction -1.000000 0.000000 0.000000
      length 3.937000
      axis 0.0 0.0 90.0 xyz
   end
   begin
      id 21
      name RightHand_dum2
      direction 0.000000 0.000000 0.000000
      length 0.000000
      axis 0.0 0.0 90.0 xyz
   end
   begin
      id 22
      name RightHandThumb1
      direction 0.000000 0.000000 1.000000
      length 3.937000
      axis 0.0 0.0 90.0 xyz
      dof rx rz ry
   end
   begin
      id 23
      name LeftShoulder
      direction 1.000000 0.000000 0.000000
      length 8.140465
      axis 0.0 0.0 -90.0 xyz
      dof rx ry rz
   end
   begin
      id 24
      name LeftArm
      direction 1.000000 0.000000 0.000000
      length 10.649840
      axis 0.0 0.0 -90.0 xyz
      dof rx ry rz
   end
   begin
      id 25
      name LeftForeArm
      direction 1.000000 0.000000 0.000000
      length 8.304624
      axis 0.0 0.0 -90.0 xyz
      dof ry rz rx
   end
   begin
      id 26
      name LeftHand
      direction 1.000000 0.000000 0.000000
      length 0.000000
      axis 0.0 0.0 -90.0 xyz
      dof rx ry rz
   end
   begin
      id 27
      name LeftHand_dum1
      direction 1.000000 0.000000 0.000000
      length 3.937000
      axis 0.0 0.0 -90.0 xyz
   end
   begin
      id 28
      name LeftHand_dum2
      direction 0.000000 0.000000 0.000000
      length 0.000000
      axis 0.0 0.0 -90.0 xyz
   end
   begin
      id 29
      name LeftHandThumb1
      direction 0.000000 0.000000 1.000000
      length 3.937000
      axis 0.0 0.0 -90.0 xyz
      dof rx rz ry
   end
   begin
      id 30
      name Head
      direction 0.000000 1.000000 0.000000
      length 4.527550
      axis 0.0 0.0 0.0 xyz
      dof rx ry rz
   end
:hierarchy
   begin
      root RightUpLeg_dum LeftUpLeg_dum Spine_dum
      RightUpLeg_dum RightUpLeg
      LeftUpLeg_dum LeftUpLeg
      Spine_dum Spine
      RightUpLeg RightLeg
      RightLeg RightFoot
      RightFoot RightToeBase
      LeftUpLeg LeftLeg
      LeftLeg LeftFoot
      LeftFoot LeftToeBase
      Spine Spine_dum1 Spine_dum2 Spine_dum3
      Spine_dum1 RightShoulder
      Spine_dum2 LeftShoulder
      Spine_dum3 Head
      RightShoulder RightArm
      RightArm RightForeArm
      RightForeArm RightHand
      RightHand RightHand_dum1 RightHand_dum2
      RightHand_dum2 RightHandThumb1
      LeftShoulder LeftArm
      LeftArm LeftForeArm
      LeftForeArm LeftHand
      LeftHand LeftHand_dum1 LeftHand_dum2
      LeftHand_dum2 LeftHandThumb1
   end

# File created by Blade
# Date/Time:  Wed Jan 21 18:34:41 2015
# Frame Rate: 120.000 fps
#------------------------------------------------------
:FULLY-SPECIFIED
:DEGREES
907
root 3.045583 32.541458 -6.292889 54.645207 41.878315 9.765531
RightUpLeg -35.829496 -22.931645 5.654104
RightLeg 1.192644 -0.000000 -0.000000
RightFoot -17.003923 -4.278502 21.418738
RightToeBase 15.493736 -0.000000 -0.000000
LeftUpLeg -52.782355 -6.762379 3.916128
LeftLeg 4.876158 -0.000000 -0.000000
LeftFoot 0.744633 -18.895532 -16.046236
LeftToeBase 6.755780 -0.000000 -0.000000
Spine -50.309394 13.884693 -23.901154
RightShoulder -6.909377 28.942207 -43.855023
RightArm 15.063341 -20.207967 45.204945
RightForeArm 6.799072 0.000000 -1.805576
RightHand 8.519980 -0.000000 5.138709
RightHandThumb1 -24.326973 -0.000000 -32.862282
LeftShoulder -15.010462 5.056283 39.869434
LeftArm 14.113180 -12.769305 -41.088567
LeftForeArm 21.984675 0.000000 -3.564467
LeftHand -28.852406 0.000000 0.034733
LeftHandThumb1 -26.253704 0.000000 33.147579
Head -6.285698 -15.525675 3.594626
908
root 3.057528 32.551286 -6.280975 54.329658 40.862652 9.461696
RightUpLeg -35.943049 -22.794323 5.477139
RightLeg 1.168304 -0.000000 -0.000000
RightFoot -16.711640 -3.901716 21.367174
RightToeBase 15.603413 -0.000000 -0.000000
LeftUpLeg -52.462253 -6.394715 3.629478
LeftLeg 4.778296 -0.000000 -0.000000
LeftFoot 0.463837 -18.445472 -15.785779
LeftToeBase 6.577694 -0.000000 -0.000000
Spine -50.277280 13.740768 -23.673172
RightShoulder -7.124604 28.854711 -43.834381
RightArm 15.011915 -20.329598 45.147529
RightForeArm 6.888087 -0.000000 -1.807981
RightHand 8.478228 -0.000000 5.031601
RightHandThumb1 -24.326973 -0.000000 -32.862282
LeftShoulder -14.862278 4.933268 39.958550
LeftArm 14.308677 -12.728823 -41.031580
LeftForeArm 21.891001 -0.000000 -3.524359
LeftHand -28.740053 -0.000000 0.198497
LeftHandThumb1 -26.253704 0.000000 33.147579
Head -6.315990 -15.675191 3.827469
909
root 3.063762 32.560547 -6.270288 54.022407 39.903829 9.180568
RightUpLeg -36.076067 -22.724769 5.364759
RightLeg 1.186247 -0.000000 -0.000000
RightFoot -16.446698 -3.483276 21.329484
RightToeBase 15.700748 -0.000000 -0.000000
LeftUpLeg -52.174562 -6.049421 3.372760
LeftLeg 4.733148 -0.000000 -0.000000
LeftFoot 0.147300 -17.971605 -15.416382
LeftToeBase 6.379555 -0.000000 -0.000000
Spine -50.181166 13.493840 -23.282271
RightShoulder -7.171836 28.756749 -43.763930
RightArm 14.973268 -20.289601 45.091078
RightForeArm 6.827621 -0.000000 -1.770911
RightHand 8.403682 -0.000000 5.069582
RightHandThumb1 -24.326973 -0.000000 -32.862282
LeftShoulder -14.827137 4.841525 40.010856
LeftArm 14.513115 -12.708898 -40.962308
LeftForeArm 21.889375 -0.000000 -3.506334
LeftHand -28.644801 -0.000000 0.085971
LeftHandThumb1 -26.253704 0.000000 33.147579
Head -6.343618 -15.667392 4.012518
910
root 3.069769 32.569178 -6.261525 53.732494 38.974053 8.913071
RightUpLeg -36.217712 -22.684153 5.293641
RightLeg 1.181560 -0.000000 -0.000000
RightFoot -16.151991 -3.058030 21.291009
RightToeBase 15.738553 -0.000000 -0.000000
LeftUpLeg -51.900336 -5.724698 3.137717
LeftLeg 4.693838 -0.000000 -0.000000
LeftFoot -0.138182 -17.501936 -15.045540
LeftToeBase 6.102264 -0.000000 -0.000000
Spine -50.095754 13.246222 -22.871149
RightShoulder -7.205326 28.648875 -43.704231
RightArm 14.932921 -20.291498 45.029398
RightForeArm 6.870800 -0.000000 -1.756291
RightHand 8.484420 0.000000 4.986674
RightHandThumb1 -24.326973 -0.000000 -32.862282
LeftShoulder -14.748364 4.797823 40.053935
LeftArm 14.722492 -12.752751 -40.930539
LeftForeArm 21.926249 0.000000 -3.491865
LeftHand -28.628690 -0.000000 0.278148
LeftHandThumb1 -26.253704 0.000000 33.147579
Head -6.318131 -15.657261 4.157018
911
root 3.074659 32.579080 -6.250944 53.424509 38.069701 8.628005
RightUpLeg -36.333822 -22.640569 5.261027
RightLeg 1.144946 -0.000000 -0.000000
RightFoot -15.819198 -2.645557 21.399001
RightToeBase 15.749841 -0.000000 -0.000000
LeftUpLeg -51.627671 -5.425433 2.971991
LeftLeg 4.668557 -0.000000 -0.000000
LeftFoot -0.426151 -16.994160 -14.732113
LeftToeBase 5.864952 -0.000000 -0.000000
Spine -50.001151 13.014800 -22.451295
RightShoulder -7.292316 28.546208 -43.661109
RightArm 14.917861 -20.272849 44.986729
RightForeArm 6.819816 0.000000 -1.787049
RightHand 8.575445 -0.000000 4.942586
RightHandThumb1 -24.326973 -0.000000 -32.862282
LeftShoulder -14.667386 4.706673 40.096541
LeftArm 14.886688 -12.734056 -40.866903
LeftForeArm 21.894626 0.000000 -3.401435
LeftHand -28.454878 -0.000000 0.050062
LeftHandThumb1 -26.253704 0.000000 33.147579
Head -6.304995 -15.723377 4.323913
912
root 3.081558 32.588100 -6.243330 53.127159 37.136511 8.360435
RightUpLeg -36.444228 -22.559444 5.164348
RightLeg 1.132849 -0.000000 -0.000000
RightFoot -15.485820 -2.233335 21.320563
RightToeBase 15.624288 -0.000000 -0.000000
LeftUpLeg -51.350740 -5.115913 2.770036
LeftLeg 4.646487 -0.000000 -0.000000
LeftFoot -0.701236 -16.488725 -14.329309
LeftToeBase 5.494955 -0.000000 -0.000000
Spine -49.927677 12.798091 -22.045656
RightShoulder -7.267838 28.473514 -43.593452
RightArm 14.790908 -20.425273 44.900695
RightForeArm 6.972258 -0.000000 -1.730218
RightHand 8.685963 -0.000000 4.732157
RightHandThumb1 -24.326973 -0.000000 -32.862282
LeftShoulder -14.537637 4.709178 40.123562
LeftArm 15.102971 -12.829293 -40.841048
LeftForeArm 21.816612 -0.000000 -3.379493
LeftHand -28.469703 -0.000000 0.025185
LeftHandThumb1 -26.253704 0.000000 33.147579
Head -6.220552 -15.807741 4.449483
913
root 3.087496 32.597682 -6.233306 52.871994 36.184731 8.103406
RightUpLeg -36.580728 -22.486515 5.098685
RightLeg 1.087216 -0.000000 -0.000000
RightFoot -15.146699 -1.832778 21.234782
RightToeBase 15.641141 -0.000000 -0.000000
LeftUpLeg -51.097573 -4.747237 2.514384
LeftLeg 4.625896 -0.000000 -0.000000
LeftFoot -0.972511 -16.091037 -14.256255
LeftToeBase 5.623522 -0.000000 -0.000000
Spine -49.888083 12.598542 -21.712159
RightShoulder -7.328911 28.357093 -43.577572
RightArm 14.679130 -20.318989 44.928604
RightForeArm 6.846833 -0.000000 -1.749400
RightHand 8.678470 0.000000 4.816088
RightHandThumb1 -24.326973 -0.000000 -32.862282
LeftShoulder -14.417595 4.597410 40.170916
LeftArm 15.304744 -12.821305 -40.778172
LeftForeArm 21.939338 -0.000000 -3.403821
LeftHand -28.351008 -0.000000 -0.115381
LeftHandThumb1 -26.253704 0.000000 33.147579
Head -6.161587 -15.873847 4.592877
914
root 3.095242 32.607389 -6.220595 52.608503 35.237740 7.842829
RightUpLeg -36.702354 -22.360955 5.001926
RightLeg 1.062893 -0.000000 -0.000000
RightFoot -14.813475 -1.482502 21.148093
RightToeBase 15.584245 -0.000000 -0.000000
LeftUpLeg -50.831354 -4.389109 2.284776
LeftLeg 4.606644 -0.000000 -0.000000
LeftFoot -1.245594 -15.657671 -13.993553
LeftToeBase 5.480303 -0.000000 -0.000000
Spine -49.833376 12.404631 -21.388900
RightShoulder -7.439802 28.214993 -43.517368
RightArm 14.644198 -20.573726 44.789889
RightForeArm 7.099640 -0.000000 -1.688483
RightHand 8.639300 -0.000000 4.643364
RightHandThumb1 -24.326973 -0.000000 -32.862282
LeftShoulder -14.345185 4.468282 40.251156
LeftArm 15.533808 -12.737259 -40.761915
LeftForeArm 21.859609 -0.000000 -3.377049
LeftHand -28.452890 0.000000 -0.130617
LeftHandThumb1 -26.253704 0.000000 33.147579
Head -6.146020 -15.936811 4.771641
915
root 3.102028 32.617664 -6.208422 52.351979 34.273059 7.565842
RightUpLeg -36.794002 -22.133244 4.859730
RightLeg 0.988990 -0.000000 -0.000000
RightFoot -14.495807 -1.248894 21.045425
RightToeBase 15.611240 -0.000000 -0.000000
LeftUpLeg -50.568612 -3.973714 2.024934
LeftLeg 4.571958 -0.000000 -0.000000
LeftFoot -1.497899 -15.252277 -13.820307
LeftToeBase 5.377277 -0.000000 -0.000000
Spine -49.810001 12.221825 -21.048944
RightShoulder -7.527146 28.211795 -43.473431
RightArm 14.551809 -20.792803 44.724958
RightForeArm 7.291313 0.000000 -1.735354
RightHand 8.946803 -0.000000 4.596322
RightHandThumb1 -24.326973 -0.000000 -32.862282
LeftShoulder -14.242721 4.373936 40.316988
LeftArm 15.691633 -12.466677 -40.641541
LeftForeArm 21.677092 -0.000000 -3.289066
LeftHand -28.314302 0.000000 -0.596961
LeftHandThumb1 -26.253704 0.000000 33.147579
Head -6.059062 -15.947937 4.916065
916
root 3.107473 32.627690 -6.197726 52.052732 33.323204 7.275263
RightUpLeg -36.826400 -21.832517 4.675564
RightLeg 0.920977 -0.000000 -0.000000
RightFoot -14.188848 -1.096027 20.968749
RightToeBase 15.535599 -0.000000 -0.000000
LeftUpLeg -50.287092 -3.530704 1.771544
LeftLeg 4.568412 -0.000000 -0.000000
LeftFoot -1.724992 -14.915947 -13.681680
LeftToeBase 5.203175 -0.000000 -0.000000
Spine -49.737778 12.037227 -20.638095
RightShoulder -7.616038 28.079416 -43.407858
RightArm 14.613592 -20.932674 44.612427
RightForeArm 7.457027 0.000000 -1.757924
RightHand 9.104004 0.000000 4.628388
RightHandThumb1 -24.326973 -0.000000 -32.862282
LeftShoulder -14.196301 4.359177 40.330545
LeftArm 15.926675 -12.337064 -40.581066
LeftForeArm 21.312086 -0.000000 -3.199244
LeftHand -28.390151 -0.000000 -0.608815
LeftHandThumb1 -26.253704 0.000000 33.147579
Head -5.982525 -15.933560 5.036197
917
root 3.111046 32.638170 -6.185103 51.789935 32.409211 6.959699
RightUpLeg -36.947511 -21.584091 4.617223
RightLeg 0.896131 -0.000000 -0.000000
RightFoot -13.879941 -0.890492 20.866648
RightToeBase 15.535171 -0.000000 -0.000000
LeftUpLeg -50.049769 -3.079418 1.581904
LeftLeg 4.558558 -0.000000 -0.000000
LeftFoot -1.972410 -14.634765 -13.688917
LeftToeBase 5.309616 -0.000000 -0.000000
Spine -49.722766 11.857026 -20.222242
RightShoulder -7.659307 27.982700 -43.363983
RightArm 14.531140 -20.935481 44.602663
RightForeArm 7.528367 0.000000 -1.814253
RightHand 9.206962 -0.000000 4.385346
RightHandThumb1 -24.326973 -0.000000 -32.862282
LeftShoulder -14.109667 4.323318 40.360827
LeftArm 16.168886 -12.563557 -40.625942
LeftForeArm 21.470110 -0.000000 -3.217001
LeftHand -28.097071 -0.000000 -0.276387
LeftHandThumb1 -26.253704 0.000000 33.147579
Head -5.889896 -15.946086 5.169666
